# xmcd
#
# Track frame offsets:
#	150
#	13398
#	25037
#	31418
#	38571
#	47101
#	61054
#	71287
#	76304
#	88465
#	98289
#	104346
#	112118
#	121065
#	129512
#	145266
#	153613
#	162539
#	172629
#
# Disc length: 2406 seconds
#
# Revision: 0
# Processed by: cddbd v1.5.2PL0 Copyright (c) Steve Scherf et al.
# Submitted via: dBpowerAMP V4.0
#
DISCID=f0096413
DTITLE=Las malas Amistades - Patio Bonito
DYEAR=2007
DGENRE=Latin
TTITLE0=Dime Lo Que Suenas
TTITLE1=Cuaderno
TTITLE2=Estrella De La Cancion
TTITLE3=Desinflado
TTITLE4=La Prima
TTITLE5=Encimeme El Segundo
TTITLE6=Cha Cha Cha
TTITLE7=Perdi El Compas
TTITLE8=Mismo Pessimismo
TTITLE9=Ahora
TTITLE10=U
TTITLE11=Fantasmas
TTITLE12=Sin Corazon
TTITLE13=Mamerto Son
TTITLE14=Vamos Todos A Bailar
TTITLE15=Tierra Caliente Agua Fria
TTITLE16=Jazz Del Ganso
TTITLE17=Museo De Los Imperfectos
TTITLE18=Cuentagotas
EXTD=
EXTT0=
EXTT1=
EXTT2=
EXTT3=
EXTT4=
EXTT5=
EXTT6=
EXTT7=
EXTT8=
EXTT9=
EXTT10=
EXTT11=
EXTT12=
EXTT13=
EXTT14=
EXTT15=
EXTT16=
EXTT17=
EXTT18=
PLAYORDER=
